<svg width="35" height="34" viewBox="0 0 35 34" fill="none" xmlns="http://www.w3.org/2000/svg">
<circle cx="17.4966" cy="16.9312" r="16.9312" fill="#43B888"/>
<path fill-rule="evenodd" clip-rule="evenodd" d="M17.0357 10.614C17.2179 10.4208 17.467 10.3101 17.7284 10.3063C17.8602 10.3042 17.991 10.3295 18.1132 10.3806C18.2354 10.4316 18.3464 10.5074 18.4397 10.6035C18.5329 10.6996 18.6066 10.814 18.6562 10.9399C18.7059 11.0658 18.7305 11.2007 18.7287 11.3367V16.2359H23.4789C23.6106 16.2322 23.7416 16.2557 23.8644 16.3051C23.9871 16.3545 24.099 16.4287 24.1934 16.5234C24.2878 16.6182 24.3629 16.7315 24.4141 16.8566C24.4654 16.9818 24.4918 17.1162 24.4918 17.2521C24.4918 17.3879 24.4654 17.5224 24.4141 17.6476C24.3629 17.7727 24.2878 17.886 24.1934 17.9807C24.099 18.0755 23.9871 18.1497 23.8644 18.1991C23.7416 18.2485 23.6106 18.272 23.4789 18.2683H18.7287V23.1667C18.7312 23.3019 18.7076 23.4363 18.6592 23.5619C18.6108 23.6876 18.5386 23.8021 18.4468 23.8986C18.355 23.9951 18.2454 24.0718 18.1245 24.1242C18.0036 24.1765 17.8738 24.2035 17.7427 24.2035C17.6116 24.2035 17.4818 24.1765 17.3609 24.1242C17.24 24.0718 17.1304 23.9951 17.0386 23.8986C16.9468 23.8021 16.8746 23.6876 16.8262 23.5619C16.7778 23.4363 16.7542 23.3019 16.7567 23.1667V18.2683H12.0066C11.8749 18.272 11.7438 18.2485 11.6211 18.1991C11.4983 18.1497 11.3865 18.0755 11.292 17.9807C11.1976 17.886 11.1226 17.7727 11.0713 17.6476C11.0201 17.5224 10.9937 17.3879 10.9937 17.2521C10.9937 17.1162 11.0201 16.9818 11.0713 16.8566C11.1226 16.7315 11.1976 16.6182 11.292 16.5234C11.3865 16.4287 11.4983 16.3545 11.6211 16.3051C11.7438 16.2557 11.8749 16.2322 12.0066 16.2359H16.7567V11.3367C16.7531 11.0672 16.8535 10.8073 17.0357 10.614Z" fill="white"/>
</svg>
