<svg width="38" height="33" viewBox="0 0 38 33" fill="none" xmlns="http://www.w3.org/2000/svg">
<path d="M23.1 4.93471C23.1 7.19471 21.2667 11.148 19 11.148C16.7334 11.148 14.9 7.20137 14.9 4.93471C14.9427 3.8768 15.393 2.87642 16.1566 2.143C16.9202 1.40958 17.9379 1 18.9967 1C20.0555 1 21.0732 1.40958 21.8368 2.143C22.6004 2.87642 23.0507 3.8768 23.0934 4.93471H23.1Z" stroke="#777779" stroke-width="1.7" stroke-linecap="round" stroke-linejoin="round"/>
<path d="M10.56 22.668C10.56 20.4296 11.4492 18.2829 13.032 16.7C14.6148 15.1172 16.7616 14.228 19 14.228C21.2384 14.228 23.3852 15.1172 24.968 16.7C26.5508 18.2829 27.44 20.4296 27.44 22.668" stroke="#777779" stroke-width="1.7" stroke-linecap="round" stroke-linejoin="round"/>
<path d="M33.3266 7.64822C33.3266 9.56156 31.7733 12.9816 29.86 12.9816C27.9466 12.9816 26.3933 9.53489 26.3933 7.64822C26.3933 6.72792 26.7589 5.84531 27.4097 5.19456C28.0604 4.54381 28.943 4.17822 29.8633 4.17822C30.7836 4.17822 31.6662 4.54381 32.317 5.19456C32.9677 5.84531 33.3333 6.72792 33.3333 7.64822H33.3266Z" stroke="#777779" stroke-width="1.7" stroke-linecap="round" stroke-linejoin="round"/>
<path d="M25.54 17.0681C26.6005 16.2653 27.864 15.7744 29.1882 15.6506C30.5125 15.5269 31.8451 15.7751 33.036 16.3674C34.2269 16.9598 35.2288 17.8727 35.9291 19.0035C36.6295 20.1342 37.0003 21.438 37 22.7681" stroke="#777779" stroke-width="1.7" stroke-linecap="round" stroke-linejoin="round"/>
<path d="M4.67335 7.64822C4.67335 9.56156 6.22669 12.9816 8.14002 12.9816C10.0534 12.9816 11.6067 9.53489 11.6067 7.64822C11.6067 6.72792 11.2411 5.84531 10.5903 5.19456C9.9396 4.54381 9.05699 4.17822 8.13669 4.17822C7.21639 4.17822 6.33378 4.54381 5.68303 5.19456C5.03228 5.84531 4.66669 6.72792 4.66669 7.64822H4.67335Z" stroke="#777779" stroke-width="1.7" stroke-linecap="round" stroke-linejoin="round"/>
<path d="M12.46 17.0681C11.3995 16.2653 10.136 15.7744 8.81173 15.6506C7.48744 15.5269 6.15488 15.7751 4.96399 16.3674C3.7731 16.9598 2.77113 17.8727 2.07083 19.0035C1.37053 20.1342 0.999674 21.438 1 22.7681" stroke="#777779" stroke-width="1.7" stroke-linecap="round" stroke-linejoin="round"/>
<path d="M10.8933 25.1079C11.4024 26.8661 12.4689 28.4113 13.9321 29.5109C15.3954 30.6105 17.1763 31.2051 19.0066 31.2051C20.837 31.2051 22.6179 30.6105 24.0811 29.5109C25.5444 28.4113 26.6108 26.8661 27.12 25.1079" stroke="#777779" stroke-width="1.7" stroke-linecap="round" stroke-linejoin="round"/>
<path d="M19 19.1079V27.1079" stroke="#777779" stroke-width="1.7" stroke-linecap="round" stroke-linejoin="round"/>
<path d="M15 23.1079H23" stroke="#777779" stroke-width="1.7" stroke-linecap="round" stroke-linejoin="round"/>
</svg>
