<svg width="42" height="42" viewBox="0 0 42 42" fill="none" xmlns="http://www.w3.org/2000/svg">
<mask id="mask0_90_950" style="mask-type:alpha" maskUnits="userSpaceOnUse" x="1" y="0" width="41" height="41">
<circle cx="21.0003" cy="20.9998" r="20.0003" fill="#C4C4C4"/>
</mask>
<g mask="url(#mask0_90_950)">
<rect x="0.999756" y="6.56396" width="18.7503" height="38.1863" rx="2.50004" fill="#1075DB" fill-opacity="0.35"/>
<path fill-rule="evenodd" clip-rule="evenodd" d="M-0.000976562 9.064C-0.000976562 7.13099 1.56604 5.56396 3.49906 5.56396H17.2493C19.1823 5.56396 20.7493 7.13099 20.7493 9.064V15.9999H20.9992C21.6896 15.9999 22.2493 16.5595 22.2493 17.2499V24.75C22.2493 25.4404 21.6896 26 20.9992 26H20.7493V42.2502C20.7493 44.1832 19.1823 45.7503 17.2493 45.7503H3.49906C1.56604 45.7503 -0.000976562 44.1832 -0.000976562 42.2502V9.064ZM3.49906 7.56396C2.67061 7.56396 1.99902 8.23556 1.99902 9.064V42.2502C1.99902 43.0787 2.67061 43.7503 3.49906 43.7503H17.2493C18.0777 43.7503 18.7493 43.0787 18.7493 42.2502V9.064C18.7493 8.23555 18.0777 7.56396 17.2493 7.56396H14.4997V7.74961C14.4997 8.43997 13.9401 8.99963 13.2497 8.99963H6.74977C6.0594 8.99963 5.49975 8.43997 5.49975 7.74961V7.56396H3.49906Z" fill="#0E83FE"/>
<path d="M37.2502 21.0001H26M26 21.0001L31.0001 16M26 21.0001L31.0001 26.0002" stroke="#0E83FE" stroke-width="2" stroke-linecap="round"/>
</g>
<circle cx="21.0003" cy="20.9998" r="20.0003" stroke="#0E83FE" stroke-width="2"/>
</svg>
