<svg width="21" height="22" viewBox="0 0 21 22" fill="none" xmlns="http://www.w3.org/2000/svg">
<path d="M1.5 22H11.5C11.7652 22 12.0196 21.8946 12.2071 21.7071C12.3946 21.5196 12.5 21.2652 12.5 21V9C12.5 8.73478 12.3946 8.48043 12.2071 8.29289C12.0196 8.10536 11.7652 8 11.5 8H1.5C1.23478 8 0.98043 8.10536 0.792893 8.29289C0.605357 8.48043 0.5 8.73478 0.5 9V21C0.5 21.2652 0.605357 21.5196 0.792893 21.7071C0.98043 21.8946 1.23478 22 1.5 22ZM2.5 10H10.5V20H2.5V10Z" fill="#43B888"/>
<path d="M15.5 18C15.7652 18 16.0196 17.8946 16.2071 17.7071C16.3946 17.5196 16.5 17.2652 16.5 17V5C16.5 4.73478 16.3946 4.48043 16.2071 4.29289C16.0196 4.10536 15.7652 4 15.5 4H5.5C5.23478 4 4.98043 4.10536 4.79289 4.29289C4.60536 4.48043 4.5 4.73478 4.5 5C4.5 5.26522 4.60536 5.51957 4.79289 5.70711C4.98043 5.89464 5.23478 6 5.5 6H14.5V17C14.5 17.2652 14.6054 17.5196 14.7929 17.7071C14.9804 17.8946 15.2348 18 15.5 18Z" fill="#43B888"/>
<path d="M19.5 0H9.5C9.23478 0 8.98043 0.105357 8.79289 0.292893C8.60536 0.48043 8.5 0.734784 8.5 1C8.5 1.26522 8.60536 1.51957 8.79289 1.70711C8.98043 1.89464 9.23478 2 9.5 2H18.5V14C18.5 14.2652 18.6054 14.5196 18.7929 14.7071C18.9804 14.8946 19.2348 15 19.5 15C19.7652 15 20.0196 14.8946 20.2071 14.7071C20.3946 14.5196 20.5 14.2652 20.5 14V1C20.5 0.734784 20.3946 0.48043 20.2071 0.292893C20.0196 0.105357 19.7652 0 19.5 0Z" fill="#43B888"/>
</svg>
