<svg width="23" height="20" viewBox="0 0 23 20" fill="none" xmlns="http://www.w3.org/2000/svg">
<path d="M22.4901 16.9985L21.4403 12.9464L18.1336 0.77967C18.0621 0.511288 17.8872 0.28216 17.6472 0.142464C17.4071 0.00276703 17.1215 -0.0361127 16.8529 0.0343386L12.7903 1.0841C12.6933 0.976652 12.5752 0.890412 12.4433 0.830797C12.3114 0.771181 12.1687 0.739478 12.0239 0.737679H1.52632C1.24791 0.737679 0.980899 0.848279 0.784031 1.04515C0.587162 1.24202 0.476563 1.50903 0.476562 1.78744V18.5836C0.476563 18.862 0.587162 19.1291 0.784031 19.3259C0.980899 19.5228 1.24791 19.6334 1.52632 19.6334H12.0239C12.3024 19.6334 12.5694 19.5228 12.7662 19.3259C12.9631 19.1291 13.0737 18.862 13.0737 18.5836V10.1855L15.3832 18.8146C15.4447 19.0436 15.5819 19.245 15.7726 19.3861C15.9632 19.5272 16.196 19.5995 16.4329 19.5914C16.5236 19.6017 16.6152 19.6017 16.7059 19.5914L21.7762 18.2372C21.9103 18.2014 22.0359 18.1393 22.1458 18.0546C22.2557 17.9699 22.3478 17.8643 22.4166 17.7438C22.5273 17.5116 22.5533 17.2479 22.4901 16.9985ZM5.69388 17.5759H2.54459V15.4763H5.69388V17.5759ZM5.69388 13.3768H2.54459V7.07824H5.69388V13.3768ZM5.69388 4.97872H2.54459V2.87919H5.69388V4.97872ZM10.9427 17.5759H7.79341V15.4763H10.9427V17.5759ZM10.9427 13.3768H7.79341V7.07824H10.9427V13.3768ZM10.9427 4.97872H7.79341V2.87919H10.9427V4.97872ZM13.3047 3.15213L16.349 2.33332L16.8948 4.35936L13.8505 5.17817L13.3047 3.15213ZM16.0235 13.2928L14.3964 7.20421L17.4407 6.3854L19.0678 12.474L16.0235 13.2928ZM17.0733 17.3449L16.5274 15.3189L19.5717 14.5001L20.1176 16.5261L17.0733 17.3449Z" fill="#43B989"/>
</svg>
