<svg width="15" height="18" viewBox="0 0 15 18" fill="none" xmlns="http://www.w3.org/2000/svg">
<path d="M7.5 0C7.21584 0 6.94332 0.105357 6.74239 0.292893C6.54145 0.48043 6.42857 0.734784 6.42857 1V10.529L1.90929 6.306C1.8055 6.209 1.68224 6.13205 1.54656 6.07955C1.41088 6.02705 1.26545 6.00002 1.11857 6.00002C0.971695 6.00002 0.826259 6.02705 0.690581 6.07955C0.554904 6.13205 0.431646 6.209 0.327857 6.306C0.118098 6.50211 0.000286102 6.76789 0.000286102 7.045C0.000286102 7.32211 0.118098 7.58789 0.327857 7.784L6.65357 13.694C6.88607 13.911 7.19571 14.013 7.5 13.999C7.80429 14.013 8.11393 13.911 8.34643 13.694L14.6721 7.784C14.8819 7.58789 14.9997 7.32211 14.9997 7.045C14.9997 6.76789 14.8819 6.50211 14.6721 6.306C14.5684 6.209 14.4451 6.13205 14.3094 6.07955C14.1737 6.02705 14.0283 6.00002 13.8814 6.00002C13.7346 6.00002 13.5891 6.02705 13.4534 6.07955C13.3178 6.13205 13.1945 6.209 13.0907 6.306L8.57143 10.529V1C8.57143 0.734784 8.45855 0.48043 8.25761 0.292893C8.05668 0.105357 7.78416 0 7.5 0ZM0 17C0 16.7348 0.112883 16.4804 0.313814 16.2929C0.514746 16.1054 0.787268 16 1.07143 16H13.9286C14.2127 16 14.4853 16.1054 14.6862 16.2929C14.8871 16.4804 15 16.7348 15 17C15 17.2652 14.8871 17.5196 14.6862 17.7071C14.4853 17.8946 14.2127 18 13.9286 18H1.07143C0.787268 18 0.514746 17.8946 0.313814 17.7071C0.112883 17.5196 0 17.2652 0 17Z" fill="#43B888"/>
</svg>
