<svg width="31" height="31" viewBox="0 0 31 31" fill="none" xmlns="http://www.w3.org/2000/svg">
<rect width="31" height="31" rx="15.5" fill="#F6F6F7"/>
<path d="M22.2536 10.0085H19.5438L19.265 8.89793C19.1611 8.48123 18.9206 8.11131 18.5821 7.84709C18.2435 7.58287 17.8262 7.43954 17.3968 7.43994H12.9833C12.5538 7.43945 12.1364 7.58274 11.7978 7.84697C11.4591 8.1112 11.2186 8.48117 11.1147 8.89793L10.8363 10.0085H8.12645C7.6157 10.0091 7.12603 10.2122 6.76487 10.5734C6.40372 10.9345 6.20057 11.4242 6.20001 11.935V20.925C6.20057 21.4357 6.40372 21.9254 6.76487 22.2866C7.12603 22.6477 7.6157 22.8509 8.12645 22.8514H22.2536C22.7644 22.8509 23.254 22.6477 23.6152 22.2866C23.9764 21.9254 24.1795 21.4357 24.1801 20.925V11.935C24.1795 11.4242 23.9764 10.9345 23.6152 10.5734C23.254 10.2122 22.7644 10.0091 22.2536 10.0085ZM22.8958 20.925C22.8956 21.0952 22.8278 21.2584 22.7074 21.3788C22.5871 21.4992 22.4239 21.5669 22.2536 21.5671H8.12645C7.95621 21.5669 7.793 21.4992 7.67263 21.3788C7.55225 21.2584 7.48452 21.0952 7.4843 20.925V11.935C7.48452 11.7647 7.55225 11.6015 7.67263 11.4811C7.793 11.3608 7.95621 11.293 8.12645 11.2928H11.3372C11.4803 11.2928 11.6193 11.245 11.7322 11.1569C11.845 11.0689 11.9252 10.9457 11.9601 10.8068L12.3605 9.21021C12.3952 9.07131 12.4753 8.94801 12.5882 8.85994C12.7011 8.77187 12.8401 8.7241 12.9833 8.72423H17.3968C17.5399 8.72408 17.679 8.77185 17.7919 8.85992C17.9048 8.94799 17.985 9.0713 18.0196 9.21021L18.42 10.8068C18.4548 10.9457 18.535 11.0689 18.6479 11.1569C18.7607 11.245 18.8998 11.2928 19.0429 11.2928H22.2536C22.4239 11.293 22.5871 11.3608 22.7074 11.4811C22.8278 11.6015 22.8956 11.7647 22.8958 11.935V20.925Z" fill="#43B989"/>
<path d="M13.9063 11.2931H16.4749C16.6452 11.2931 16.8085 11.2254 16.9289 11.105C17.0494 10.9846 17.117 10.8212 17.117 10.6509C17.117 10.4806 17.0494 10.3173 16.9289 10.1969C16.8085 10.0764 16.6452 10.0088 16.4749 10.0088H13.9063C13.736 10.0088 13.5726 10.0764 13.4522 10.1969C13.3318 10.3173 13.2641 10.4806 13.2641 10.6509C13.2641 10.8212 13.3318 10.9846 13.4522 11.105C13.5726 11.2254 13.736 11.2931 13.9063 11.2931ZM15.1906 12.5774C14.4286 12.5774 13.6836 12.8033 13.05 13.2267C12.4164 13.6501 11.9226 14.2518 11.631 14.9558C11.3394 15.6598 11.2631 16.4345 11.4117 17.1819C11.5604 17.9293 11.9274 18.6158 12.4662 19.1546C13.005 19.6935 13.6915 20.0604 14.4389 20.2091C15.1863 20.3577 15.961 20.2814 16.665 19.9898C17.369 19.6982 17.9708 19.2044 18.3941 18.5708C18.8175 17.9372 19.0434 17.1923 19.0434 16.4302C19.0423 15.4087 18.636 14.4294 17.9137 13.7071C17.1914 12.9848 16.2121 12.5785 15.1906 12.5774ZM15.1906 18.9988C14.6826 18.9988 14.186 18.8482 13.7636 18.5659C13.3412 18.2837 13.0119 17.8825 12.8175 17.4132C12.6231 16.9438 12.5722 16.4274 12.6714 15.9291C12.7705 15.4309 13.0151 14.9732 13.3743 14.614C13.7335 14.2548 14.1912 14.0101 14.6895 13.911C15.1877 13.8119 15.7042 13.8628 16.1735 14.0572C16.6429 14.2516 17.044 14.5808 17.3263 15.0032C17.6085 15.4256 17.7592 15.9222 17.7592 16.4302C17.7584 17.1112 17.4875 17.7641 17.006 18.2456C16.5245 18.7272 15.8716 18.998 15.1906 18.9988ZM21.612 12.5774H20.3277C20.1574 12.5774 19.9941 12.645 19.8737 12.7654C19.7532 12.8859 19.6856 13.0492 19.6856 13.2195C19.6856 13.3898 19.7532 13.5532 19.8737 13.6736C19.9941 13.794 20.1574 13.8617 20.3277 13.8617H21.612C21.7823 13.8617 21.9457 13.794 22.0661 13.6736C22.1865 13.5532 22.2542 13.3898 22.2542 13.2195C22.2542 13.0492 22.1865 12.8859 22.0661 12.7654C21.9457 12.645 21.7823 12.5774 21.612 12.5774Z" fill="#43B989"/>
</svg>
