<svg width="23" height="24" viewBox="0 0 23 24" fill="none" xmlns="http://www.w3.org/2000/svg">
<path fill-rule="evenodd" clip-rule="evenodd" d="M11.7683 11.5976C11.7683 11.7378 11.6983 11.9 11.5363 12.0423C11.3727 12.186 11.1584 12.2683 10.9634 12.2683H9.48781H8.81707V12.939C8.81707 13.6058 8.27654 14.1463 7.60976 14.1463C6.94297 14.1463 6.40244 13.6058 6.40244 12.939V12.2683H5.73171H4.65854H4.65787C4.41434 12.2682 4.1443 12.1877 3.95118 12.0573C3.76061 11.9286 3.71951 11.8105 3.71951 11.7317V10.122V9.45122H3.04878C2.38199 9.45122 1.84146 8.91069 1.84146 8.2439C1.84146 7.57712 2.38199 7.03659 3.04878 7.03659H3.71951V6.36585V5.15854C3.71951 5.15846 3.71951 5.15862 3.71951 5.15854C3.71957 4.95064 3.77813 4.72307 3.87641 4.54082C3.89755 4.50975 3.92062 4.47984 3.94555 4.45148C4.08785 4.28954 4.25003 4.21951 4.39024 4.21951H5.86585H6.53659V3.54878C6.53659 2.88199 7.07712 2.34146 7.7439 2.34146C8.41069 2.34146 8.95122 2.88199 8.95122 3.54878V4.21951H9.62195H10.9634C11.1584 4.21951 11.3727 4.30177 11.5363 4.44555C11.6983 4.58785 11.7683 4.75003 11.7683 4.89024H11.7727C11.7698 4.93459 11.7683 4.97932 11.7683 5.02439V5.7843C10.6861 6.07873 9.89024 7.06838 9.89024 8.2439C9.89024 9.41943 10.6861 10.4091 11.7683 10.7035V11.5976ZM12.4041 3.42244C12.764 3.08482 13.2481 2.87805 13.7805 2.87805H20.4878C21.5991 2.87805 22.5 3.77895 22.5 4.89024V5.02439V11.5976C22.5 12.1129 22.3063 12.583 21.9876 12.939C22.3063 13.295 22.5 13.7651 22.5 14.2805V20.9878C22.5 22.0991 21.5991 23 20.4878 23H13.7805C13.2651 23 12.795 22.8063 12.439 22.4876C12.083 22.8063 11.6129 23 11.0976 23H9.7561H9.08537V22.3293C9.08537 21.6625 8.54484 21.122 7.87805 21.122C7.21126 21.122 6.67073 21.6625 6.67073 22.3293V23H6H4.39024C3.27895 23 2.37805 22.0991 2.37805 20.9878V14.2805C2.37805 14.211 2.38156 14.1424 2.38843 14.0748C2.43316 13.6344 2.61983 13.2361 2.90197 12.9262C2.60489 12.6355 2.37805 12.2345 2.37805 11.7317V10.7035C1.2958 10.4091 0.5 9.41943 0.5 8.2439C0.5 7.06838 1.2958 6.07873 2.37805 5.7843V5.15854V5.02439C2.37805 4.6011 2.50914 4.19131 2.72731 3.84726C2.7561 3.79711 2.78658 3.74812 2.81875 3.70047C3.1085 3.27139 3.59401 2.87805 4.2561 2.87805H4.39024H5.2843C5.57873 1.7958 6.56838 1 7.7439 1C8.91943 1 9.90908 1.7958 10.2035 2.87805H10.9634C11.5011 2.87805 12.017 3.08954 12.4041 3.42244ZM10.9634 13.6098H10.0694C9.77493 14.692 8.78528 15.4878 7.60976 15.4878C6.43423 15.4878 5.44458 14.692 5.15016 13.6098H4.65854H4.65722H4.39024C4.01981 13.6098 3.71951 13.9101 3.71951 14.2805V20.9878C3.71951 21.3582 4.01981 21.6585 4.39024 21.6585H5.41845C5.71287 20.5763 6.70252 19.7805 7.87805 19.7805C9.05357 19.7805 10.0432 20.5763 10.3376 21.6585H11.0976C11.468 21.6585 11.7683 21.3582 11.7683 20.9878V14.2805C11.7683 13.9101 11.468 13.6098 11.0976 13.6098H10.9634ZM21.1585 5.02439C21.1585 4.65396 20.8582 4.35366 20.4878 4.35366H13.7805C13.4101 4.35366 13.1098 4.65396 13.1098 5.02439V6.36585V7.03659H12.439C11.7722 7.03659 11.2317 7.57712 11.2317 8.2439C11.2317 8.91069 11.7722 9.45122 12.439 9.45122H13.1098V10.122V11.5976C13.1098 11.724 13.1447 11.8422 13.2055 11.9431C13.2389 11.9797 13.2832 12.018 13.3414 12.0573C13.5347 12.1878 13.8051 12.2683 14.0488 12.2683H14.8087C15.1031 11.1861 16.0928 10.3902 17.2683 10.3902C18.4438 10.3902 19.4335 11.1861 19.7279 12.2683H20.4878C20.8582 12.2683 21.1585 11.968 21.1585 11.5976V5.02439ZM13.7805 21.6585C13.4101 21.6585 13.1098 21.3582 13.1098 20.9878V14.2805C13.1098 13.9101 13.4101 13.6098 13.7805 13.6098H14.0488H15.3902H16.061V12.939C16.061 12.2722 16.6015 11.7317 17.2683 11.7317C17.9351 11.7317 18.4756 12.2722 18.4756 12.939V13.6098H19.1463H20.4878C20.8582 13.6098 21.1585 13.9101 21.1585 14.2805V20.9878C21.1585 21.3582 20.8582 21.6585 20.4878 21.6585H13.7805Z" fill="#43B989"/>
<path d="M3.71951 5.15854V6.36585V7.03659H3.04878C2.38199 7.03659 1.84146 7.57711 1.84146 8.2439C1.84146 8.91069 2.38199 9.45122 3.04878 9.45122H3.71951V10.122V11.7317C3.71951 11.8105 3.76061 11.9286 3.95118 12.0573C4.1443 12.1877 4.41434 12.2682 4.65787 12.2683H4.65854H5.73171H6.40244V12.939C6.40244 13.6058 6.94297 14.1463 7.60976 14.1463C8.27654 14.1463 8.81707 13.6058 8.81707 12.939V12.2683H9.48781H10.9634C11.1584 12.2683 11.3727 12.186 11.5363 12.0423C11.6983 11.9 11.7683 11.7378 11.7683 11.5976V10.7035C10.6861 10.4091 9.89024 9.41943 9.89024 8.2439C9.89024 7.06838 10.6861 6.07873 11.7683 5.7843V5.02439C11.7683 4.97932 11.7698 4.93459 11.7727 4.89024H11.7683C11.7683 4.75003 11.6983 4.58785 11.5363 4.44555C11.3727 4.30177 11.1584 4.21951 10.9634 4.21951H9.62195H8.95122V3.54878C8.95122 2.88199 8.41069 2.34146 7.7439 2.34146C7.07711 2.34146 6.53659 2.88199 6.53659 3.54878V4.21951H5.86585H4.39024C4.25003 4.21951 4.08785 4.28954 3.94555 4.45148C3.92062 4.47984 3.89755 4.50975 3.87641 4.54082C3.77813 4.72307 3.71957 4.95064 3.71951 5.15854ZM3.71951 5.15854C3.71951 5.15846 3.71951 5.15862 3.71951 5.15854ZM12.4041 3.42244C12.764 3.08482 13.2481 2.87805 13.7805 2.87805H20.4878C21.5991 2.87805 22.5 3.77895 22.5 4.89024V5.02439V11.5976C22.5 12.1129 22.3063 12.583 21.9876 12.939C22.3063 13.295 22.5 13.7651 22.5 14.2805V20.9878C22.5 22.0991 21.5991 23 20.4878 23H13.7805C13.2651 23 12.795 22.8063 12.439 22.4876C12.083 22.8063 11.6129 23 11.0976 23H9.7561H9.08537V22.3293C9.08537 21.6625 8.54484 21.122 7.87805 21.122C7.21126 21.122 6.67073 21.6625 6.67073 22.3293V23H6H4.39024C3.27895 23 2.37805 22.0991 2.37805 20.9878V14.2805C2.37805 14.211 2.38156 14.1424 2.38843 14.0748C2.43316 13.6344 2.61983 13.2361 2.90197 12.9262C2.60489 12.6355 2.37805 12.2345 2.37805 11.7317V10.7035C1.2958 10.4091 0.5 9.41943 0.5 8.2439C0.5 7.06838 1.2958 6.07873 2.37805 5.7843V5.15854V5.02439C2.37805 4.60111 2.50914 4.19131 2.72731 3.84726C2.7561 3.79711 2.78658 3.74812 2.81875 3.70047C3.1085 3.27139 3.59401 2.87805 4.2561 2.87805H4.39024H5.2843C5.57873 1.7958 6.56838 1 7.7439 1C8.91943 1 9.90908 1.7958 10.2035 2.87805H10.9634C11.5011 2.87805 12.017 3.08954 12.4041 3.42244ZM10.9634 13.6098H10.0694C9.77493 14.692 8.78528 15.4878 7.60976 15.4878C6.43423 15.4878 5.44458 14.692 5.15016 13.6098H4.65854H4.65722H4.39024C4.01981 13.6098 3.71951 13.9101 3.71951 14.2805V20.9878C3.71951 21.3582 4.01981 21.6585 4.39024 21.6585H5.41845C5.71287 20.5763 6.70252 19.7805 7.87805 19.7805C9.05357 19.7805 10.0432 20.5763 10.3376 21.6585H11.0976C11.468 21.6585 11.7683 21.3582 11.7683 20.9878V14.2805C11.7683 13.9101 11.468 13.6098 11.0976 13.6098H10.9634ZM21.1585 5.02439C21.1585 4.65396 20.8582 4.35366 20.4878 4.35366H13.7805C13.4101 4.35366 13.1098 4.65396 13.1098 5.02439V6.36585V7.03659H12.439C11.7722 7.03659 11.2317 7.57711 11.2317 8.2439C11.2317 8.91069 11.7722 9.45122 12.439 9.45122H13.1098V10.122V11.5976C13.1098 11.724 13.1447 11.8422 13.2055 11.9431C13.2389 11.9797 13.2832 12.018 13.3414 12.0573C13.5347 12.1878 13.8051 12.2683 14.0488 12.2683H14.8087C15.1031 11.1861 16.0928 10.3902 17.2683 10.3902C18.4438 10.3902 19.4335 11.1861 19.7279 12.2683H20.4878C20.8582 12.2683 21.1585 11.968 21.1585 11.5976V5.02439ZM13.7805 21.6585C13.4101 21.6585 13.1098 21.3582 13.1098 20.9878V14.2805C13.1098 13.9101 13.4101 13.6098 13.7805 13.6098H14.0488H15.3902H16.061V12.939C16.061 12.2722 16.6015 11.7317 17.2683 11.7317C17.9351 11.7317 18.4756 12.2722 18.4756 12.939V13.6098H19.1463H20.4878C20.8582 13.6098 21.1585 13.9101 21.1585 14.2805V20.9878C21.1585 21.3582 20.8582 21.6585 20.4878 21.6585H13.7805Z" stroke="#43B989" stroke-width="0.5"/>
</svg>
