<svg width="23" height="22" viewBox="0 0 23 22" fill="none" xmlns="http://www.w3.org/2000/svg">
<path d="M8.89684 9.96433C8.80518 9.95516 8.69518 9.95516 8.59434 9.96433C6.41268 9.891 4.68018 8.1035 4.68018 5.9035C4.68018 3.65766 6.49518 1.8335 8.75018 1.8335C10.996 1.8335 12.8202 3.65766 12.8202 5.9035C12.811 8.1035 11.0785 9.891 8.89684 9.96433Z" stroke="#43B888" stroke-width="2" stroke-linecap="round" stroke-linejoin="round"/>
<path d="M15.5425 3.6665C17.3208 3.6665 18.7508 5.10567 18.7508 6.87484C18.7508 8.60734 17.3758 10.019 15.6617 10.0832C15.5883 10.074 15.5058 10.074 15.4233 10.0832" stroke="#43B888" stroke-width="2" stroke-linecap="round" stroke-linejoin="round"/>
<path d="M4.31316 13.3465C2.09483 14.8315 2.09483 17.2515 4.31316 18.7273C6.834 20.414 10.9682 20.414 13.489 18.7273C15.7073 17.2423 15.7073 14.8223 13.489 13.3465C10.9773 11.669 6.84316 11.669 4.31316 13.3465Z" stroke="#43B888" stroke-width="2" stroke-linecap="round" stroke-linejoin="round"/>
<path d="M17.3115 18.3335C17.9715 18.196 18.5949 17.9302 19.1082 17.536C20.5382 16.4635 20.5382 14.6943 19.1082 13.6218C18.604 13.2368 17.9899 12.9802 17.339 12.8335" stroke="#43B888" stroke-width="2" stroke-linecap="round" stroke-linejoin="round"/>
</svg>
