<svg width="22" height="22" viewBox="0 0 22 22" fill="none" xmlns="http://www.w3.org/2000/svg">
<path d="M8.39672 9.96433C8.30505 9.95516 8.19505 9.95516 8.09422 9.96433C5.91255 9.891 4.18005 8.1035 4.18005 5.9035C4.18005 3.65766 5.99505 1.8335 8.25005 1.8335C10.4959 1.8335 12.3201 3.65766 12.3201 5.9035C12.3109 8.1035 10.5784 9.891 8.39672 9.96433Z" fill="#43B888" stroke="#43B888" stroke-width="1.7" stroke-linecap="round" stroke-linejoin="round"/>
<path d="M15.0424 3.6665C16.8208 3.6665 18.2508 5.10567 18.2508 6.87484C18.2508 8.60734 16.8758 10.019 15.1616 10.0832C15.0883 10.074 15.0058 10.074 14.9233 10.0832C14.9233 10.0832 15.9799 8.19629 15.9999 6.87484C16.0198 5.56745 15.0424 3.6665 15.0424 3.6665Z" fill="#43B888" stroke="#43B888" stroke-width="1.7" stroke-linecap="round" stroke-linejoin="round"/>
<path d="M3.81341 13.3465C1.59507 14.8315 1.59507 17.2515 3.81341 18.7273C6.33424 20.414 10.4684 20.414 12.9892 18.7273C15.2076 17.2423 15.2076 14.8223 12.9892 13.3465C10.4776 11.669 6.34341 11.669 3.81341 13.3465Z" fill="#43B888" stroke="#43B888" stroke-width="1.7" stroke-linecap="round" stroke-linejoin="round"/>
<path d="M16.8117 18.3335C17.4717 18.196 18.095 17.9302 18.6084 17.536C20.0384 16.4635 20.0384 14.6943 18.6084 13.6218C18.1042 13.2368 17.49 12.9802 16.8392 12.8335C16.8392 12.8335 17.5048 14.479 17.4999 15.5835C17.495 16.6905 16.8117 18.3335 16.8117 18.3335Z" fill="#43B888" stroke="#43B888" stroke-width="1.7" stroke-linecap="round" stroke-linejoin="round"/>
</svg>
