<svg width="31" height="31" viewBox="0 0 31 31" fill="none" xmlns="http://www.w3.org/2000/svg">
<rect width="31" height="31" rx="15.5" fill="#43B989"/>
<path d="M20.4444 7.5H15.1111C13.1556 7.5 11.5556 9.1 11.5556 11.0556C9.6 11.0556 8 12.6556 8 14.6111V19.9444C8 21.9 9.6 23.5 11.5556 23.5H16.8889C18.8444 23.5 20.4444 21.9 20.4444 19.9444C22.4 19.9444 24 18.3444 24 16.3889V11.0556C24 9.1 22.4 7.5 20.4444 7.5ZM18.6667 19.9444C18.6667 20.9222 17.8667 21.7222 16.8889 21.7222H11.5556C10.5778 21.7222 9.77778 20.9222 9.77778 19.9444V14.6111C9.77778 13.6333 10.5778 12.8333 11.5556 12.8333H16.8889C17.8667 12.8333 18.6667 13.6333 18.6667 14.6111V19.9444ZM22.2222 16.3889C22.2222 17.3667 21.4222 18.1667 20.4444 18.1667V14.6111C20.4444 12.6556 18.8444 11.0556 16.8889 11.0556H13.3333C13.3333 10.0778 14.1333 9.27778 15.1111 9.27778H20.4444C21.4222 9.27778 22.2222 10.0778 22.2222 11.0556V16.3889Z" fill="white"/>
</svg>
