<svg width="23" height="21" viewBox="0 0 23 21" fill="none" xmlns="http://www.w3.org/2000/svg">
<path d="M11.2299 19.9379C11.3268 19.969 11.4237 20 11.5206 20C11.6175 20 11.7143 19.969 11.8112 19.9379C20.3705 16.585 23.2452 10.5621 22.3408 6.06046C21.7271 3.01797 19.4662 1.06209 16.5915 1.06209C14.9766 1.06209 13.2324 1.68301 11.5206 2.89379C9.80869 1.65196 8.03224 1 6.41727 1C3.54264 1 1.28169 2.98693 0.668007 6.02941C-0.268672 10.5931 2.63826 16.6471 11.2299 19.9379ZM2.15377 6.33987C2.60596 4.01144 4.28552 2.52124 6.38497 2.52124C7.80614 2.52124 9.4211 3.1732 11.0038 4.44608C11.2945 4.6634 11.682 4.6634 11.9727 4.44608C13.5554 3.20425 15.1381 2.58333 16.5592 2.58333C18.6587 2.58333 20.3382 4.07353 20.7904 6.37092C21.5656 10.2206 18.9817 15.4363 11.4883 18.4788C3.99483 15.4363 1.37859 10.2206 2.15377 6.33987Z" fill="#43B888" stroke="#43B989"/>
</svg>
