<svg width="21" height="21" viewBox="0 0 21 21" fill="none" xmlns="http://www.w3.org/2000/svg">
<path fill-rule="evenodd" clip-rule="evenodd" d="M9.8762 1.08386C9.75681 1.13378 9.59775 1.2174 9.52274 1.26963C9.44774 1.32187 7.56723 3.18696 5.34379 5.4143C2.0813 8.68251 1.28248 9.5016 1.20428 9.65882C0.846018 10.3793 0.964929 11.1696 1.51431 11.7194C1.85542 12.0607 2.29095 12.2376 2.79011 12.2376H3.04274V15.2142C3.04274 17.2292 3.05591 18.2544 3.08356 18.388C3.22401 19.0668 3.77284 19.68 4.4495 19.9139C4.69633 19.9993 4.71359 20 6.50946 20C8.28054 20 8.32277 19.9983 8.42327 19.9232C8.47978 19.881 8.56056 19.8002 8.60275 19.7437C8.67798 19.6429 8.67984 19.5929 8.69807 17.1556L8.71667 14.6702L8.82963 14.487C8.97038 14.2588 9.25784 14.0763 9.52993 14.0424C9.63514 14.0294 10.1566 14.0242 10.6886 14.031L11.656 14.0432L11.8514 14.1516C12.0378 14.2549 12.1581 14.378 12.2734 14.5831C12.3163 14.6595 12.329 15.1206 12.3443 17.1586C12.3625 19.5929 12.3644 19.6429 12.4396 19.7437C12.4818 19.8002 12.5626 19.881 12.6191 19.9232C12.7196 19.9983 12.7618 20 14.5329 20C16.3287 20 16.346 19.9993 16.5928 19.9139C17.2695 19.68 17.8183 19.0668 17.9588 18.388C17.9864 18.2544 17.9996 17.2292 17.9996 15.2142V12.2376H18.2522C18.9519 12.2376 19.5617 11.8643 19.8625 11.2518C19.9888 10.9947 19.9901 10.9867 19.9901 10.4878C19.9901 9.63875 20.4179 10.1429 15.6419 5.36382C10.893 0.611932 11.3688 1.02016 10.5595 1.00296C10.1366 0.993946 10.0731 1.00147 9.8762 1.08386ZM10.7978 2.14754C11.0144 2.25302 18.7938 10.0449 18.8725 10.2353C18.9503 10.4234 18.9444 10.5829 18.8527 10.7725C18.7145 11.0581 18.6 11.0992 17.8813 11.1207C17.2058 11.141 17.1579 11.1556 16.9787 11.3956C16.9029 11.4972 16.9018 11.5374 16.8834 14.8743L16.8648 18.2502L16.7617 18.4258C16.7049 18.5224 16.6033 18.6435 16.5359 18.695C16.2768 18.8926 16.1997 18.9017 14.7766 18.9017H13.4605V16.8187C13.4605 15.4519 13.4464 14.6678 13.4196 14.5384C13.2751 13.8399 12.711 13.2359 11.9908 13.0086C11.7445 12.9308 11.6649 12.9264 10.5212 12.9264C9.18949 12.9264 9.123 12.9352 8.6442 13.1765C8.17503 13.413 7.73384 14.0011 7.6227 14.5384C7.59591 14.6678 7.58189 15.4519 7.58189 16.8187V18.9017H6.26576C4.84266 18.9017 4.7655 18.8926 4.50647 18.695C4.43901 18.6435 4.3374 18.5224 4.28066 18.4258L4.17753 18.2502L4.15892 14.8743C4.14054 11.5374 4.13943 11.4973 4.0636 11.3957C3.88446 11.1556 3.83653 11.141 3.16106 11.1207C2.44238 11.0992 2.32783 11.0581 2.18964 10.7725C2.09793 10.5829 2.09205 10.4234 2.16981 10.2353C2.24679 10.0491 10.0262 2.25506 10.2421 2.14784C10.4309 2.05414 10.6057 2.05406 10.7978 2.14754Z" fill="#777779" stroke="#777779" stroke-width="0.5"/>
</svg>
