<svg width="19" height="19" viewBox="0 0 19 19" fill="none" xmlns="http://www.w3.org/2000/svg">
<path fill-rule="evenodd" clip-rule="evenodd" d="M8.8762 0.0838557C8.75681 0.133781 8.59775 0.217399 8.52274 0.269632C8.44774 0.321865 6.56723 2.18696 4.34379 4.4143C1.0813 7.68251 0.282483 8.5016 0.204276 8.65882C-0.153982 9.37925 -0.0350713 10.1696 0.514314 10.7194C0.85542 11.0607 1.29095 11.2376 1.79011 11.2376H2.04274V14.2142C2.04274 16.2292 2.05591 17.2544 2.08356 17.388C2.22401 18.0668 2.77284 18.68 3.4495 18.9139C3.69633 18.9993 3.71359 19 5.50946 19C7.28054 19 7.32277 18.9983 7.42327 18.9232C7.47978 18.881 7.56056 18.8002 7.60275 18.7437C7.67798 18.6429 7.67984 18.5929 7.69807 16.1556L7.71667 13.6702L7.82963 13.487C7.97038 13.2588 8.25784 13.0763 8.52993 13.0424C8.63514 13.0294 9.15655 13.0242 9.6886 13.031L10.656 13.0432L10.8514 13.1516C11.0378 13.2549 11.1581 13.378 11.2734 13.5831C11.3163 13.6595 11.329 14.1206 11.3443 16.1586C11.3625 18.5929 11.3644 18.6429 11.4396 18.7437C11.4818 18.8002 11.5626 18.881 11.6191 18.9232C11.7196 18.9983 11.7618 19 13.5329 19C15.3287 19 15.346 18.9993 15.5928 18.9139C16.2695 18.68 16.8183 18.0668 16.9588 17.388C16.9864 17.2544 16.9996 16.2292 16.9996 14.2142V11.2376H17.2522C17.9519 11.2376 18.5617 10.8643 18.8625 10.2518C18.9888 9.9947 18.9901 9.98673 18.9901 9.48781C18.9901 8.63875 19.4179 9.14288 14.6419 4.36382C9.89304 -0.388068 10.3688 0.0201557 9.55946 0.00295555C9.13665 -0.00605403 9.0731 0.00146637 8.8762 0.0838557ZM9.79776 1.14754C10.0144 1.25302 17.7938 9.04493 17.8725 9.23532C17.9503 9.42344 17.9444 9.58294 17.8527 9.77251C17.7145 10.0581 17.6 10.0992 16.8813 10.1207C16.2058 10.141 16.1579 10.1556 15.9787 10.3956C15.9029 10.4972 15.9018 10.5374 15.8834 13.8743L15.8648 17.2502L15.7617 17.4258C15.7049 17.5224 15.6033 17.6435 15.5359 17.695C15.2768 17.8926 15.1997 17.9017 13.7766 17.9017H12.4605V15.8187C12.4605 14.4519 12.4464 13.6678 12.4196 13.5384C12.2751 12.8399 11.711 12.2359 10.9908 12.0086C10.7445 11.9308 10.6649 11.9264 9.52117 11.9264C8.18949 11.9264 8.123 11.9352 7.6442 12.1765C7.17503 12.413 6.73384 13.0011 6.6227 13.5384C6.59591 13.6678 6.58189 14.4519 6.58189 15.8187V17.9017H5.26576C3.84266 17.9017 3.7655 17.8926 3.50647 17.695C3.43901 17.6435 3.3374 17.5224 3.28066 17.4258L3.17753 17.2502L3.15892 13.8743C3.14054 10.5374 3.13943 10.4973 3.0636 10.3957C2.88446 10.1556 2.83653 10.141 2.16106 10.1207C1.44238 10.0992 1.32783 10.0581 1.18964 9.77251C1.09793 9.58294 1.09205 9.42344 1.16981 9.23532C1.24679 9.0491 9.02622 1.25506 9.24212 1.14784C9.43087 1.05414 9.6057 1.05406 9.79776 1.14754Z" fill="#43B888"/>
<path d="M9.79776 1.14754C10.0144 1.25302 17.7938 9.04493 17.8725 9.23532C17.9503 9.42344 17.9444 9.58294 17.8527 9.77251C17.7145 10.0581 17.6 10.0992 16.8813 10.1207C16.2058 10.141 16.1579 10.1556 15.9787 10.3956C15.9029 10.4972 15.9018 10.5374 15.8834 13.8743L15.8648 17.2502L15.7617 17.4258C15.7049 17.5224 15.6033 17.6435 15.5359 17.695C15.2768 17.8926 15.1997 17.9017 13.7766 17.9017H12.4605V15.8187C12.4605 14.4519 12.4464 13.6678 12.4196 13.5384C12.2751 12.8399 11.711 12.2359 10.9908 12.0086C10.7445 11.9308 10.6649 11.9264 9.52117 11.9264C8.18949 11.9264 8.123 11.9352 7.6442 12.1765C7.17503 12.413 6.73384 13.0011 6.6227 13.5384C6.59591 13.6678 6.58189 14.4519 6.58189 15.8187V17.9017H5.26576C3.84266 17.9017 3.7655 17.8926 3.50647 17.695C3.43901 17.6435 3.3374 17.5224 3.28066 17.4258L3.17753 17.2502L3.15892 13.8743C3.14054 10.5374 3.13943 10.4973 3.0636 10.3957C2.88446 10.1556 2.83653 10.141 2.16106 10.1207C1.44238 10.0992 1.32783 10.0581 1.18964 9.77251C1.09793 9.58294 1.09205 9.42344 1.16981 9.23532C1.24679 9.0491 9.02622 1.25506 9.24212 1.14784C9.43087 1.05414 9.6057 1.05406 9.79776 1.14754Z" fill="#43B888"/>
</svg>
