<svg width="23" height="22" viewBox="0 0 23 22" fill="none" xmlns="http://www.w3.org/2000/svg">
<path d="M11.4999 0C5.4349 0 0.5 4.9349 0.5 10.9999C0.5 17.065 5.4349 21.9998 11.4999 21.9998C17.565 21.9998 22.4998 17.065 22.4998 10.9999C22.4998 4.9349 17.565 0 11.4999 0ZM11.4999 19.7999C6.64775 19.7999 2.69998 15.8521 2.69998 10.9999C2.69998 6.14775 6.64775 2.19998 11.4999 2.19998C16.3521 2.19998 20.2999 6.14775 20.2999 10.9999C20.2999 15.8521 16.3521 19.7999 11.4999 19.7999Z" fill="#43B989"/>
<path d="M11.5689 5.86621H11.4314C10.355 5.86621 9.3538 6.39905 8.75232 7.29169C8.41286 7.79439 8.54607 8.47869 9.04987 8.81815C9.55158 9.15651 10.2358 9.0255 10.5763 8.5206C10.7686 8.23592 11.0876 8.0662 11.4314 8.0662H11.5689C12.1371 8.0662 12.6001 8.52918 12.6001 9.09744C12.6001 9.54217 12.3165 9.9353 11.8965 10.075L11.1532 10.3221C10.703 10.4713 10.4001 10.8924 10.4001 11.3662V12.0999C10.4001 12.7078 10.8921 13.1999 11.5001 13.1999C12.0877 13.1999 12.5668 12.7401 12.5979 12.16C13.916 11.7174 14.8001 10.4875 14.8001 9.09744C14.8001 7.31534 13.3509 5.86621 11.5689 5.86621Z" fill="#43B989"/>
<path d="M11.5004 16.5003C12.1079 16.5003 12.6004 16.0078 12.6004 15.4003C12.6004 14.7928 12.1079 14.3003 11.5004 14.3003C10.8929 14.3003 10.4004 14.7928 10.4004 15.4003C10.4004 16.0078 10.8929 16.5003 11.5004 16.5003Z" fill="#43B989"/>
</svg>
