<svg width="20" height="18" viewBox="0 0 20 18" fill="none" xmlns="http://www.w3.org/2000/svg">
<path d="M9.75442 17.9412C9.84251 17.9706 9.9306 18 10.0187 18C10.1068 18 10.1949 17.9706 10.283 17.9412C18.0641 14.7647 20.6774 9.05882 19.8553 4.79412C19.2974 1.91176 17.242 0.0588238 14.6287 0.0588238C13.1605 0.0588238 11.5749 0.647059 10.0187 1.79412C8.46245 0.617647 6.84749 0 5.37934 0C2.76604 0 0.710629 1.88235 0.152733 4.76471C-0.698792 9.08823 1.94387 14.8235 9.75442 17.9412ZM1.50343 5.05882C1.91451 2.85294 3.44138 1.44118 5.34998 1.44118C6.64195 1.44118 8.11009 2.05882 9.54888 3.26471C9.81314 3.47059 10.1655 3.47059 10.4298 3.26471C11.8686 2.08824 13.3073 1.5 14.5993 1.5C16.5079 1.5 18.0348 2.91177 18.4459 5.08824C19.1506 8.73529 16.8015 13.6765 9.98932 16.5588C3.17712 13.6765 0.798718 8.73529 1.50343 5.05882Z" fill="#43B888"/>
</svg>
