<svg width="20" height="20" viewBox="0 0 20 20" fill="none" xmlns="http://www.w3.org/2000/svg">
<path fill-rule="evenodd" clip-rule="evenodd" d="M17.9893 2.88408C17.9894 2.88396 17.9895 2.88382 17.9895 2.88366C18.2483 2.13142 17.5272 1.4108 16.775 1.66943L2.04332 6.74119C1.25588 7.01239 1.16811 8.09073 1.90145 8.48588L7.42354 11.4594C7.75268 11.6366 8.0226 11.9066 8.19987 12.2357L11.1734 17.7574C11.5681 18.4908 12.6465 18.403 12.9177 17.6156L17.989 2.8845C17.9891 2.88434 17.9891 2.8842 17.9893 2.88408ZM16.4637 0.766457C16.4639 0.766572 16.4642 0.766587 16.4644 0.766504C17.9693 0.248491 19.4106 1.68998 18.8926 3.19486L13.8208 17.9265C13.2788 19.5014 11.1218 19.6769 10.3322 18.2106L7.35869 12.6885C7.27006 12.5238 7.13502 12.3888 6.97035 12.3002L1.44826 9.32669C-0.0180621 8.53711 0.157481 6.38008 1.73235 5.83804L16.4629 0.766408C16.4632 0.766325 16.4634 0.766342 16.4637 0.766457Z" fill="#43B888" stroke="#43B888" stroke-width="0.5"/>
<path fill-rule="evenodd" clip-rule="evenodd" d="M12.9795 6.67902C13.1658 6.86567 13.1658 7.16804 12.9795 7.35469L10.2772 10.057C10.1876 10.1465 10.0661 10.1968 9.93943 10.1968C9.81275 10.1968 9.69127 10.1464 9.60172 10.0568C9.51217 9.9672 9.46188 9.8457 9.46191 9.71902C9.46195 9.59234 9.5123 9.47087 9.6019 9.38132L12.3038 6.67902C12.4905 6.49273 12.7928 6.49273 12.9795 6.67902Z" fill="#43B888" stroke="#43B888" stroke-width="0.5"/>
</svg>
