<svg width="24" height="21" viewBox="0 0 24 21" fill="none" xmlns="http://www.w3.org/2000/svg">
<path d="M11.7299 19.9379C11.8268 19.969 11.9237 20 12.0206 20C12.1175 20 12.2143 19.969 12.3112 19.9379C20.8705 16.585 23.7452 10.5621 22.8408 6.06046C22.2271 3.01797 19.9662 1.06209 17.0915 1.06209C15.4766 1.06209 13.7324 1.68301 12.0206 2.89379C10.3087 1.65196 8.53224 1 6.91727 1C4.04264 1 1.78169 2.98693 1.16801 6.02941C0.231328 10.5931 3.13826 16.6471 11.7299 19.9379ZM2.65377 6.33987C3.10596 4.01144 4.78552 2.52124 6.88497 2.52124C8.30614 2.52124 9.9211 3.1732 11.5038 4.44608C11.7945 4.6634 12.182 4.6634 12.4727 4.44608C14.0554 3.20425 15.6381 2.58333 17.0592 2.58333C19.1587 2.58333 20.8382 4.07353 21.2904 6.37092C22.0656 10.2206 19.4817 15.4363 11.9883 18.4788C4.49483 15.4363 1.87859 10.2206 2.65377 6.33987Z" fill="#777779" stroke="#777779" stroke-width="0.3"/>
</svg>
