<svg width="18" height="16" viewBox="0 0 18 16" fill="none" xmlns="http://www.w3.org/2000/svg">
<path d="M8.77898 15.9477C8.85826 15.9739 8.93754 16 9.01682 16C9.0961 16 9.17538 15.9739 9.25466 15.9477C16.2577 13.1242 18.6097 8.05229 17.8697 4.26144C17.3676 1.69935 15.5178 0.0522878 13.1658 0.0522878C11.8445 0.0522878 10.4174 0.575163 9.01682 1.59477C7.6162 0.54902 6.16274 0 4.84141 0C2.48943 0 0.639567 1.6732 0.13746 4.23529C-0.628913 8.07843 1.74949 13.1765 8.77898 15.9477ZM1.35309 4.49673C1.72306 2.53595 3.09725 1.28105 4.81498 1.28105C5.97775 1.28105 7.29908 1.83007 8.59399 2.90196C8.83183 3.08497 9.14895 3.08497 9.38679 2.90196C10.6817 1.85621 11.9766 1.33333 13.1394 1.33333C14.8571 1.33333 16.2313 2.58824 16.6013 4.52288C17.2355 7.76471 15.1214 12.1569 8.99039 14.719C2.8594 12.1569 0.718847 7.76471 1.35309 4.49673Z" fill="#FB0509"/>
<path d="M1.35309 4.49673C1.72306 2.53595 3.09725 1.28105 4.81498 1.28105C5.97775 1.28105 7.29908 1.83007 8.59399 2.90196C8.83183 3.08497 9.14895 3.08497 9.38679 2.90196C10.6817 1.85621 11.9766 1.33333 13.1394 1.33333C14.8571 1.33333 16.2313 2.58824 16.6013 4.52288C17.2355 7.76471 15.1214 12.1569 8.99039 14.719C2.8594 12.1569 0.718847 7.76471 1.35309 4.49673Z" fill="#FB0509"/>
</svg>
