<svg width="15" height="21" viewBox="0 0 15 21" fill="none" xmlns="http://www.w3.org/2000/svg">
<path d="M7.39635 9.96408C7.30469 9.95492 7.19469 9.95492 7.09385 9.96408C4.91219 9.89075 3.17969 8.10325 3.17969 5.90325C3.17969 3.65742 4.99469 1.83325 7.24969 1.83325C9.49552 1.83325 11.3197 3.65742 11.3197 5.90325C11.3105 8.10325 9.57802 9.89075 7.39635 9.96408Z" stroke="#777779" stroke-width="1.7" stroke-linecap="round" stroke-linejoin="round"/>
<path d="M2.81316 13.3465C0.594831 14.8315 0.594831 17.2515 2.81316 18.7273C5.334 20.414 9.46816 20.414 11.989 18.7273C14.2073 17.2423 14.2073 14.8223 11.989 13.3465C9.47733 11.669 5.34316 11.669 2.81316 13.3465Z" stroke="#777779" stroke-width="1.7" stroke-linecap="round" stroke-linejoin="round"/>
</svg>
