<svg width="31" height="32" viewBox="0 0 31 32" fill="none" xmlns="http://www.w3.org/2000/svg">
<rect y="0.5" width="31" height="31" rx="15.5" fill="#43B989"/>
<path d="M15.5356 19.5715C16.4165 19.5715 17.2613 19.2216 17.8842 18.5987C18.5071 17.9758 18.857 17.131 18.857 16.25V11.8214C18.857 10.9405 18.5071 10.0957 17.8842 9.47283C17.2613 8.84994 16.4165 8.5 15.5356 8.5C14.6547 8.5 13.8098 8.84994 13.1869 9.47283C12.564 10.0957 12.2141 10.9405 12.2141 11.8214V16.25C12.2141 17.131 12.564 17.9758 13.1869 18.5987C13.8098 19.2216 14.6547 19.5715 15.5356 19.5715Z" fill="white"/>
<path d="M20.5179 14.5891C20.3711 14.5891 20.2303 14.6474 20.1265 14.7512C20.0227 14.8551 19.9643 14.9959 19.9643 15.1427V16.2498C19.9643 17.4244 19.4978 18.5508 18.6672 19.3813C17.8367 20.2119 16.7103 20.6784 15.5357 20.6784C14.3612 20.6784 13.2348 20.2119 12.4043 19.3813C11.5737 18.5508 11.1071 17.4244 11.1071 16.2498V15.1427C11.1071 14.9959 11.0488 14.8551 10.945 14.7512C10.8412 14.6474 10.7004 14.5891 10.5536 14.5891C10.4068 14.5891 10.266 14.6474 10.1621 14.7512C10.0583 14.8551 10 14.9959 10 15.1427V16.2498C9.99998 17.6222 10.5097 18.9456 11.4303 19.9634C12.3509 20.9811 13.6167 21.6207 14.9822 21.7579V22.8927H12.7679C12.6211 22.8927 12.4803 22.9511 12.3764 23.0549C12.2726 23.1587 12.2143 23.2995 12.2143 23.4463C12.2143 23.5931 12.2726 23.7339 12.3764 23.8377C12.4803 23.9416 12.6211 23.9999 12.7679 23.9999H18.3036C18.4504 23.9999 18.5912 23.9416 18.6951 23.8377C18.7989 23.7339 18.8572 23.5931 18.8572 23.4463C18.8572 23.2995 18.7989 23.1587 18.6951 23.0549C18.5912 22.9511 18.4504 22.8927 18.3036 22.8927H16.0893V21.7579C17.4548 21.6207 18.7206 20.9811 19.6412 19.9634C20.5618 18.9456 21.0715 17.6222 21.0715 16.2498V15.1427C21.0715 14.9959 21.0132 14.8551 20.9094 14.7512C20.8055 14.6474 20.6647 14.5891 20.5179 14.5891Z" fill="white"/>
</svg>
