<svg width="51" height="80" viewBox="0 0 51 80" fill="none" xmlns="http://www.w3.org/2000/svg">
<path d="M25.4966 36.4073C25.1539 36.374 24.7427 36.374 24.3657 36.4073C16.2094 36.1416 9.73236 29.6668 9.73236 21.6978C9.73236 13.5627 16.5178 6.95508 24.9483 6.95508C33.3444 6.95508 40.1642 13.5627 40.1642 21.6978C40.1299 29.6668 33.6529 36.1416 25.4966 36.4073Z" stroke="#A9ADC8" stroke-width="3.5" stroke-linecap="round" stroke-linejoin="round"/>
<path d="M8.36147 48.6598C0.0681093 54.0389 0.0681093 62.8048 8.36147 68.1507C17.7857 74.2603 33.2415 74.2603 42.6658 68.1507C50.9592 62.7716 50.9592 54.0057 42.6658 48.6598C33.2758 42.5834 17.82 42.5834 8.36147 48.6598Z" stroke="#A9ADC8" stroke-width="3.5" stroke-linecap="round" stroke-linejoin="round"/>
</svg>
