<svg width="15" height="20" viewBox="0 0 15 20" fill="none" xmlns="http://www.w3.org/2000/svg">
<path d="M7.39635 8.96433C7.30469 8.95516 7.19469 8.95516 7.09385 8.96433C4.91219 8.891 3.17969 7.1035 3.17969 4.9035C3.17969 2.65766 4.99469 0.833496 7.24969 0.833496C9.49552 0.833496 11.3197 2.65766 11.3197 4.9035C11.3105 7.1035 9.57802 8.891 7.39635 8.96433Z" fill="#43B888" stroke="#43B888" stroke-linecap="round" stroke-linejoin="round"/>
<path d="M2.81316 12.347C0.594831 13.832 0.594831 16.252 2.81316 17.7278C5.334 19.4145 9.46816 19.4145 11.989 17.7278C14.2073 16.2428 14.2073 13.8228 11.989 12.347C9.47733 10.6695 5.34316 10.6695 2.81316 12.347Z" fill="#43B888" stroke="#43B888" stroke-linecap="round" stroke-linejoin="round"/>
</svg>
