<svg width="22" height="21" viewBox="0 0 22 21" fill="none" xmlns="http://www.w3.org/2000/svg">
<path d="M4.84008 16.8302C4.03515 16.7236 3.37787 16.032 3.24406 15.1701L3.19843 14.8302C2.83749 12.5421 2.83749 10.2221 3.19894 7.93037C3.27431 7.44228 3.49836 7.01572 3.83981 6.70349C4.17922 6.39844 4.58271 6.23694 5.00671 6.23694H15.5487C16.4439 6.23694 17.2042 6.94907 17.3575 7.93652C17.4488 8.50356 17.517 9.07573 17.5621 9.64841C17.5361 9.64143 17.509 9.6397 17.4829 9.6331C17.4803 9.63245 17.4776 9.6322 17.475 9.63162C17.1918 9.56049 16.9037 9.51659 16.6132 9.49108L16.609 9.49083L16.6046 9.49063C16.3221 9.46628 16.039 9.46467 15.7556 9.48185C15.7325 9.4832 15.7099 9.48582 15.6869 9.48749C15.4309 9.50601 15.1776 9.54049 14.9261 9.59157C14.8792 9.60092 14.8332 9.61118 14.7866 9.62156C14.6703 9.64803 14.5529 9.66847 14.4384 9.70173C14.4506 9.5733 14.4777 9.44923 14.4777 9.31772C14.4777 8.73787 14.0076 8.26772 13.4277 8.26772C12.8479 8.26772 12.3777 8.73787 12.3777 9.31772C12.3777 10.4487 11.4359 11.3685 10.2777 11.3685C9.11955 11.3685 8.17773 10.4487 8.17773 9.31772C8.17773 8.73787 7.70759 8.26772 7.12773 8.26772C6.54787 8.26772 6.07773 8.73787 6.07773 9.31772C6.07773 11.6064 7.96188 13.4685 10.2777 13.4685C10.3801 13.4685 10.4762 13.4458 10.5768 13.4386C10.3909 14.0102 10.2777 14.6088 10.2777 15.225C10.2777 15.8951 10.388 16.5334 10.6223 17.1707C10.6233 17.1743 10.6248 17.1773 10.6258 17.1809C8.70324 17.1989 6.76628 17.083 4.84008 16.8302Z" fill="#43B888"/>
<path fill-rule="evenodd" clip-rule="evenodd" d="M16.6046 9.49063L16.609 9.49083L16.6046 9.49063Z" fill="#777779"/>
<path fill-rule="evenodd" clip-rule="evenodd" d="M20.5465 11.6131C20.4855 11.5315 20.4122 11.449 20.3378 11.3675L20.2589 11.2798C20.0796 11.0851 19.8948 10.9181 19.7059 10.7638C19.6809 9.70846 19.599 8.64872 19.4319 7.60891C19.1197 5.59709 17.4867 4.13694 15.5487 4.13694H15.4212C14.9356 1.7788 12.8436 0 10.3439 0H10.2116C7.71188 0 5.61989 1.7788 5.1343 4.13694H5.00671C4.07001 4.13694 3.1569 4.49377 2.42887 5.14797C1.73417 5.78372 1.2707 6.65786 1.12406 7.60635C0.728777 10.1119 0.728777 12.6523 1.12048 15.1327L1.16559 15.4696C1.44399 17.2686 2.84159 18.6842 4.56528 18.9118C6.44225 19.1589 8.33102 19.283 10.2049 19.283C10.7803 19.283 11.353 19.2609 11.9251 19.2375C12.0168 19.3344 12.1117 19.4345 12.1942 19.5081C12.2362 19.5501 12.3106 19.6244 12.4198 19.6988C13.4303 20.5386 14.7172 21 16.0527 21C17.458 21 18.8013 20.496 19.8216 19.5932C21.0966 18.5047 21.8277 16.9123 21.8277 15.225C21.8277 14.3211 21.6139 13.4234 21.2063 12.622C21.0054 12.2329 20.7716 11.8781 20.5465 11.6131ZM10.3439 2.1H10.2116C8.87961 2.1 7.74245 2.94902 7.31178 4.13386H13.2437C12.813 2.94902 11.6758 2.1 10.3439 2.1ZM3.24406 15.1701C3.37787 16.032 4.03515 16.7236 4.84008 16.8302C6.76628 17.083 8.70324 17.1989 10.6258 17.1809C10.6248 17.1773 10.6233 17.1743 10.6223 17.1707C10.388 16.5334 10.2777 15.8951 10.2777 15.225C10.2777 14.6088 10.3909 14.0102 10.5768 13.4386C10.4762 13.4458 10.3801 13.4685 10.2777 13.4685C7.96188 13.4685 6.07773 11.6064 6.07773 9.31772C6.07773 8.73787 6.54787 8.26772 7.12773 8.26772C7.70759 8.26772 8.17773 8.73787 8.17773 9.31772C8.17773 10.4487 9.11955 11.3685 10.2777 11.3685C11.4359 11.3685 12.3777 10.4487 12.3777 9.31772C12.3777 8.73787 12.8479 8.26772 13.4277 8.26772C14.0076 8.26772 14.4777 8.73787 14.4777 9.31772C14.4777 9.44923 14.4506 9.5733 14.4384 9.70173C14.5529 9.66847 14.6703 9.64803 14.7866 9.62156C14.8332 9.61118 14.8792 9.60092 14.9261 9.59157C15.1776 9.54049 15.4309 9.50601 15.6869 9.48749C15.7099 9.48582 15.7325 9.4832 15.7556 9.48185C16.039 9.46467 16.3221 9.46628 16.6046 9.49063L16.609 9.49083L16.6132 9.49108C16.9037 9.51659 17.1918 9.56049 17.475 9.63162C17.4776 9.6322 17.4803 9.63245 17.4829 9.6331C17.509 9.6397 17.5361 9.64143 17.5621 9.64841C17.517 9.07573 17.4488 8.50356 17.3575 7.93652C17.2042 6.94907 16.4439 6.23694 15.5487 6.23694H5.00671C4.58271 6.23694 4.17922 6.39844 3.83981 6.70349C3.49836 7.01572 3.27431 7.44228 3.19894 7.93037C2.83749 10.2221 2.83749 12.5421 3.19843 14.8302L3.24406 15.1701ZM13.722 18.0505C15.0227 19.1635 17.1658 19.1389 18.4439 18.0084C19.2648 17.3071 19.7277 16.297 19.7277 15.225C19.7277 14.6503 19.5929 14.0817 19.3376 13.5798C19.2109 13.3347 19.0638 13.1101 18.9028 12.9184L18.6946 12.681C18.5188 12.4898 18.3255 12.3257 18.1235 12.2006C18.0852 12.1764 18.0485 12.1501 18.0137 12.1215L18.0112 12.1201C17.8436 12.0171 17.6759 11.9207 17.4924 11.8407C16.1158 11.2552 14.407 11.5992 13.3703 12.7236C13.298 12.8035 13.2642 12.842 13.2252 12.8804C12.6946 13.4834 12.3777 14.3329 12.3777 15.225C12.3777 15.6459 12.4444 16.0397 12.5751 16.3939C12.5787 16.4037 12.6095 16.4914 12.6125 16.5006C12.6392 16.5472 12.6454 16.5724 12.6643 16.6226C12.7356 16.8067 12.833 16.9928 12.9632 17.1927C13.0468 17.3358 13.097 17.406 13.1524 17.467C13.2514 17.5906 13.2908 17.6352 13.3303 17.6747C13.4723 17.8264 13.5523 17.9064 13.64 17.9859L13.6425 17.9884C13.6702 18.0079 13.6969 18.0284 13.722 18.0505Z" fill="#43B888"/>
<path d="M15.4228 15.0226L15.4936 15.0933L15.5643 15.0226L16.9219 13.6649C17.293 13.2938 17.8941 13.2938 18.2652 13.6649C18.6363 14.0361 18.6363 14.6372 18.2652 15.0083L16.1652 17.1083C15.9796 17.2939 15.7367 17.3866 15.4936 17.3866C15.2504 17.3866 15.0075 17.2939 14.8219 17.1083L13.7719 16.0583C13.4008 15.6872 13.4008 15.0861 13.7719 14.7149C14.143 14.3438 14.7441 14.3438 15.1152 14.7149L15.4228 15.0226Z" fill="#43B888" stroke="white" stroke-width="0.2"/>
</svg>
