<svg width="22" height="21" viewBox="0 0 22 21" fill="none" xmlns="http://www.w3.org/2000/svg">
<path d="M20.4663 11.6731L20.4664 11.673C20.4086 11.5957 20.3382 11.5162 20.2639 11.4349L20.264 11.4348C20.2605 11.4311 20.2546 11.4246 20.2479 11.4171C20.2404 11.4088 20.2318 11.3993 20.2241 11.3908L20.197 11.3607L20.1876 11.3503L20.1845 11.3467L20.1839 11.346C20.009 11.1563 19.8284 10.9929 19.6426 10.8412L19.607 10.8121L19.6059 10.7661C19.5811 9.71433 19.4994 8.65922 19.3332 7.62477L19.3331 7.62425C19.0278 5.65744 17.4338 4.23694 15.5487 4.23694H15.4212H15.3396L15.3232 4.15711C14.847 1.84442 12.7951 0.1 10.3439 0.1H10.2116C7.76037 0.1 5.70847 1.84442 5.23225 4.15711L5.21581 4.23694H5.1343H5.00671C4.09589 4.23694 3.20647 4.58382 2.49606 5.22204C1.81871 5.84204 1.3661 6.69526 1.22289 7.62162L1.22284 7.62193C0.829176 10.1172 0.829193 12.6471 1.21925 15.1171L1.21962 15.1194L1.21959 15.1194L1.26457 15.4553C1.53699 17.2128 2.90185 18.5912 4.57833 18.8126C4.57834 18.8126 4.57836 18.8127 4.57837 18.8127L4.56528 18.9118C6.44225 19.1589 8.33102 19.283 10.2049 19.283C10.7803 19.283 11.353 19.2609 11.9251 19.2375L20.4663 11.6731ZM20.4663 11.6731L20.4703 11.6778C20.6896 11.936 20.9193 12.2841 21.1174 12.6677L20.4663 11.6731ZM4.82707 16.9294L4.82695 16.9294C3.97277 16.8162 3.28502 16.0857 3.14524 15.1855L3.14493 15.1834L3.14495 15.1834L3.09947 14.8447C2.73709 12.5466 2.73715 10.2166 3.10014 7.91496C3.17879 7.4058 3.4131 6.95818 3.77233 6.62969L3.77296 6.62911L3.77297 6.62912C4.12917 6.30896 4.55601 6.13694 5.00671 6.13694H15.5487C16.5009 6.13694 17.2966 6.89296 17.4563 7.92091C17.4563 7.921 17.4563 7.92109 17.4564 7.92118L17.3575 7.93652C17.4433 8.46924 17.5086 9.00647 17.5536 9.5444L4.82707 16.9294ZM4.82707 16.9294C6.75792 17.1828 8.69954 17.2989 10.6268 17.2809L10.7581 17.2797L10.722 17.1535C10.7208 17.1494 10.7195 17.1457 10.7186 17.1432L4.82707 16.9294ZM13.657 18.1264L13.6561 18.1256C13.6342 18.1064 13.6104 18.0881 13.585 18.0702L13.5779 18.0652L13.5718 18.0591L13.571 18.0583C13.4814 17.977 13.3996 17.8951 13.2584 17.7442C13.2155 17.7012 13.1734 17.6531 13.0762 17.5319C13.0154 17.4644 12.9616 17.388 12.8781 17.2453C12.7455 17.0414 12.645 16.8497 12.5711 16.6587L12.5708 16.6579C12.5653 16.6435 12.5611 16.6318 12.5575 16.6219C12.547 16.5928 12.5417 16.5783 12.5257 16.5502L12.5208 16.5416L12.5177 16.5322L12.5177 16.5322L12.5176 16.5321L12.5175 16.5317L12.5171 16.5304L12.5157 16.5265L12.5115 16.5143L12.4997 16.4806L12.4813 16.4286L13.657 18.1264ZM13.657 18.1264C14.9956 19.2719 17.1941 19.2467 18.5095 18.0839L13.657 18.1264ZM13.1548 12.8091L13.155 12.8093C13.1853 12.7793 13.2121 12.7497 13.2631 12.6931C13.2731 12.682 13.284 12.6699 13.2961 12.6565L13.2968 12.6558C14.3626 11.4998 16.1167 11.1469 17.5315 11.7487L17.5323 11.749C17.7213 11.8314 17.8929 11.9301 18.0612 12.0334C18.0634 12.0347 18.0665 12.0365 18.0702 12.039L18.0752 12.0421L18.0749 12.0424C18.0756 12.043 18.0764 12.0436 18.0771 12.0442L18.0773 12.0443C18.1084 12.07 18.1417 12.0938 18.1765 12.1158C18.1767 12.1159 18.1768 12.116 18.1769 12.1161L18.1235 12.2006L13.1548 12.8091ZM13.1548 12.8091L13.1501 12.8144M13.1548 12.8091L13.1501 12.8144M13.1501 12.8144C12.6024 13.4368 12.2777 14.3102 12.2777 15.225C12.2777 15.6564 12.346 16.062 12.4813 16.4285L13.1501 12.8144ZM13.2437 4.23386H13.3864L13.3377 4.0997C12.8931 2.87673 11.7194 2 10.3439 2H10.2116C8.83609 2 7.66232 2.87673 7.2178 4.0997L7.16904 4.23386H7.31178H13.2437ZM17.4531 9.72919C17.4564 9.72994 17.4597 9.73052 17.4615 9.73081L14.7866 9.62156L14.8084 9.71916C14.8085 9.71915 14.8085 9.71913 14.8086 9.71912C14.8552 9.70872 14.9001 9.69872 14.9457 9.68963L14.946 9.68957C15.1933 9.63935 15.4423 9.60545 15.6941 9.58723C15.709 9.58615 15.7192 9.58519 15.7284 9.58432C15.7388 9.58333 15.748 9.58246 15.7614 9.58168L15.7617 9.58167C16.0407 9.56476 16.3188 9.56637 16.5961 9.59026L16.5961 9.59028L16.598 9.59041L16.605 9.59075C16.605 9.59075 16.6051 9.59076 16.6051 9.59076C16.8913 9.61591 17.1738 9.65906 17.4506 9.72861L17.4506 9.72864L17.4531 9.72919ZM16.6041 9.59067L16.6044 9.5907L16.6041 9.59067ZM18.0546 12.0301C18.0543 12.03 18.0545 12.0301 18.0551 12.0303L18.0546 12.0301Z" fill="#777779" stroke="white" stroke-width="0.2"/>
<path d="M15.4226 15.0226L15.4933 15.0933L15.564 15.0226L16.9216 13.6649C17.2927 13.2938 17.8939 13.2938 18.265 13.6649C18.6361 14.0361 18.6361 14.6372 18.265 15.0083L16.165 17.1083C15.9794 17.2939 15.7365 17.3866 15.4933 17.3866C15.2501 17.3866 15.0072 17.2939 14.8216 17.1083L13.7716 16.0583C13.4005 15.6872 13.4005 15.0861 13.7716 14.7149C14.1427 14.3438 14.7439 14.3438 15.115 14.7149L15.4226 15.0226Z" fill="#777779" stroke="white" stroke-width="0.2"/>
</svg>
