<svg width="22" height="22" viewBox="0 0 22 22" fill="none" xmlns="http://www.w3.org/2000/svg">
  <path d="M11 19.8c-5.5 0 -9.8 -4.3 -9.8 -9.8S5.5 1.2 11 1.2s9.8 4.3 9.8 9.8 -4.3 9.8 -9.8 9.8" fill="#43B888"/>
  <path d="M11 0C4.935 0 0 4.935 0 11s4.935 11 11 11 11 -4.935 11 -11S17.065 0 11 0Zm0 19.8c-4.852 0 -8.8 -3.948 -8.8 -8.8S6.148 2.2 11 2.2s8.8 3.948 8.8 8.8 -3.948 8.8 -8.8 8.8Z" stroke="white" stroke-width="1"/>
  <path d="M11 19.8c-4.852 0 -8.8 -3.948 -8.8 -8.8S6.148 2.2 11 2.2s8.8 3.948 8.8 8.8 -3.948 8.8 -8.8 8.8Z" stroke="white" stroke-width="1"/>
  <path d="M11.069 5.866h-0.138a3.23 3.23 0 0 0 -2.679 1.426 1.1 1.1 0 1 0 1.824 1.229 1.03 1.03 0 0 1 0.855 -0.455h0.138c0.568 0 1.03 0.463 1.03 1.031 0 0.445 -0.283 0.838 -0.703 0.978l-0.743 0.247a1.1 1.1 0 0 0 -0.753 1.044v0.734a1.1 1.1 0 0 0 1.1 1.1c0.588 0 0.969 -0.52 1 -1.1 1.318 -0.443 2.3 -1.612 2.3 -3.003a3.234 3.234 0 0 0 -3.231 -3.23" fill="white"/>
  <path d="M11 16.5a1.1 1.1 0 1 0 0 -2.2 1.1 1.1 0 0 0 0 2.2" fill="white"/>
</svg>

