<svg width="24" height="24" viewBox="0 0 24 24" fill="none" xmlns="http://www.w3.org/2000/svg">
<path d="M11.9999 1C5.9349 1 1 5.9349 1 11.9999C1 18.065 5.9349 22.9998 11.9999 22.9998C18.065 22.9998 22.9998 18.065 22.9998 11.9999C22.9998 5.9349 18.065 1 11.9999 1ZM11.9999 20.7999C7.14775 20.7999 3.19998 16.8521 3.19998 11.9999C3.19998 7.14775 7.14775 3.19998 11.9999 3.19998C16.8521 3.19998 20.7999 7.14775 20.7999 11.9999C20.7999 16.8521 16.8521 20.7999 11.9999 20.7999Z" fill="#777779" stroke="white" stroke-width="0.4"/>
<path d="M12.0687 6.86621H11.9312C10.8549 6.86621 9.85367 7.39905 9.2522 8.29169C8.91274 8.79439 9.04595 9.47869 9.54975 9.81815C10.0515 10.1565 10.7356 10.0255 11.0762 9.5206C11.2685 9.23592 11.5875 9.0662 11.9312 9.0662H12.0687C12.637 9.0662 13.1 9.52918 13.1 10.0974C13.1 10.5422 12.8164 10.9353 12.3964 11.075L11.653 11.3221C11.2029 11.4713 10.9 11.8924 10.9 12.3662V13.0999C10.9 13.7078 11.392 14.1999 12 14.1999C12.5876 14.1999 13.0666 13.7401 13.0978 13.16C14.4159 12.7174 15.3 11.4875 15.3 10.0974C15.3 8.31534 13.8508 6.86621 12.0687 6.86621Z" fill="#777779" stroke="white" stroke-width="0.4"/>
<path d="M12.0002 17.5003C12.6077 17.5003 13.1002 17.0078 13.1002 16.4003C13.1002 15.7928 12.6077 15.3003 12.0002 15.3003C11.3927 15.3003 10.9002 15.7928 10.9002 16.4003C10.9002 17.0078 11.3927 17.5003 12.0002 17.5003Z" fill="#777779" stroke="white" stroke-width="0.4"/>
</svg>
