<svg width="20" height="17" viewBox="0 0 20 17" fill="none" xmlns="http://www.w3.org/2000/svg">
<path d="M11.9257 16.472V10.862C11.9257 7.958 12.5857 5.582 13.9057 3.734C15.2257 1.842 17.1617 0.609999 19.7137 0.0379981V3.008C18.3057 3.36 17.2717 4.02 16.6117 4.988C15.9517 5.912 15.5337 7.1 15.3577 8.552H18.3937V16.472H11.9257ZM0.903704 16.472V10.862C0.903704 7.958 1.5417 5.582 2.8177 3.734C4.1377 1.842 6.0737 0.609999 8.6257 0.0379981V3.008C7.2617 3.36 6.2277 4.02 5.5237 4.988C4.8637 5.912 4.4677 7.1 4.3357 8.552H7.3057V16.472H0.903704Z" fill="#43B888" fill-opacity="0.15"/>
</svg>
