<svg width="11" height="11" viewBox="0 0 11 11" fill="none" xmlns="http://www.w3.org/2000/svg">
<path d="M8.55246 0.930653C8.5256 0.910065 8.49696 0.890366 8.46831 0.872464C8.45847 0.866194 8.44951 0.860382 8.43967 0.854561C8.31703 0.780267 8.19259 0.70686 8.13173 0.679553C7.8766 0.526032 7.60358 0.404291 7.29742 0.307163C7.28758 0.303578 7.27862 0.300453 7.26878 0.297767L7.26609 0.296429C7.08169 0.230182 6.89549 0.177823 6.74063 0.14783C5.27882 -0.217851 3.59948 0.107094 2.36414 0.987495C2.17078 1.1164 1.99086 1.25783 1.82257 1.4136C1.65248 1.5707 1.48419 1.73988 1.35081 1.89609C0.479814 2.87988 0 4.15908 0 5.49826C0 5.69968 0.0125306 5.90063 0.034017 6.06714C0.0707199 6.4825 0.155758 6.87638 0.287353 7.23892C0.305255 7.30517 0.331215 7.36917 0.363445 7.4296C0.365232 7.43273 0.367029 7.43587 0.367918 7.43899L0.368816 7.43854L0.369714 7.44123C0.416262 7.54238 0.478026 7.63593 0.549644 7.71068C0.729575 7.89867 0.970371 7.99355 1.21207 7.99355C1.44034 7.99355 1.66772 7.90895 1.84586 7.73932C2.11156 7.48465 2.18003 7.11097 2.06848 6.78378C2.09741 6.88309 2.10814 6.97417 2.10814 7.03617C2.10814 6.94889 2.08783 6.85182 2.06181 6.76359C2.04849 6.72739 2.04386 6.68901 2.02578 6.65438C1.93984 6.43149 1.88434 6.17994 1.85659 5.872C1.84047 5.74756 1.83331 5.62269 1.83331 5.49826C1.83331 4.60756 2.14931 3.75984 2.73475 3.09875C2.83411 2.98238 2.95048 2.8669 3.06596 2.75994C3.16354 2.67042 3.26827 2.58806 3.40434 2.49676C4.15539 1.96145 5.08367 1.72288 6.0236 1.87238L5.53573 2.16734C5.10158 2.42917 4.96282 2.99269 5.22422 3.42595C5.4865 3.85877 6.05046 3.99886 6.48283 3.73658L8.53993 2.49408C8.77805 2.3504 8.93828 2.10602 8.97498 1.83031C9.01169 1.5546 8.92128 1.27709 8.72882 1.07569C8.68317 1.02779 8.62588 0.981243 8.56679 0.941414C8.56141 0.937363 8.55693 0.933788 8.55246 0.930653Z" fill="#43B888"/>
<path d="M2.05823 6.74076C2.06047 6.74786 2.05991 6.75592 2.06204 6.76314C2.0645 6.76979 2.0664 6.77657 2.06869 6.78333C2.06438 6.76862 2.06355 6.75592 2.05823 6.74076ZM5.77587 7.57013C5.51269 7.13643 4.94874 6.99632 4.51726 7.25951L2.46016 8.502C2.19161 8.66358 2.05465 8.97018 2.04659 9.28304C2.03943 9.5959 2.22115 9.91055 2.48075 10.0851C2.53894 10.1245 2.6016 10.1643 2.60697 10.1643C3.47081 10.7104 4.47161 10.9977 5.50016 10.9977C6.83844 10.9977 8.11764 10.5179 9.0898 9.65767C10.3036 8.62062 11.0001 7.1042 11.0001 5.49781C11.0001 4.84703 10.8873 4.21011 10.6644 3.60453C10.4907 3.13009 9.96348 2.88526 9.48815 3.06071C9.01282 3.23527 8.76933 3.76208 8.94388 4.23741C9.09159 4.63979 9.16678 5.06366 9.16678 5.49781C9.16678 6.56754 8.70487 7.5755 7.88669 8.27419C7.10968 8.96213 6.01668 9.27812 4.97291 9.12594L5.46436 8.82874C5.89851 8.5669 6.03727 8.0034 5.77587 7.57013Z" fill="#43B888"/>
</svg>
