<svg width="15" height="17" viewBox="0 0 15 17" fill="none" xmlns="http://www.w3.org/2000/svg">
<path d="M5.73824 4.43228L6.73069 3.43213V12.3488C6.73069 12.5529 6.81175 12.7486 6.95603 12.8929C7.10031 13.0371 7.29599 13.1182 7.50004 13.1182C7.70408 13.1182 7.89977 13.0371 8.04405 12.8929C8.18833 12.7486 8.26938 12.5529 8.26938 12.3488V3.43213L9.26184 4.43228C9.33336 4.50439 9.41845 4.56162 9.5122 4.60068C9.60595 4.63974 9.70651 4.65985 9.80807 4.65985C9.90964 4.65985 10.0102 4.63974 10.1039 4.60068C10.1977 4.56162 10.2828 4.50439 10.3543 4.43228C10.4264 4.36076 10.4837 4.27567 10.5227 4.18192C10.5618 4.08816 10.5819 3.98761 10.5819 3.88604C10.5819 3.78448 10.5618 3.68392 10.5227 3.59017C10.4837 3.49642 10.4264 3.41133 10.3543 3.33981L8.04627 1.03177C7.97475 0.959661 7.88966 0.902426 7.79591 0.863367C7.70216 0.824309 7.6016 0.804199 7.50004 0.804199C7.39847 0.804199 7.29792 0.824309 7.20416 0.863367C7.11041 0.902426 7.02532 0.959661 6.9538 1.03177L4.64577 3.33981C4.50089 3.48468 4.41951 3.68116 4.41951 3.88604C4.41951 4.09092 4.50089 4.28741 4.64577 4.43228C4.79064 4.57715 4.98712 4.65854 5.192 4.65854C5.39688 4.65854 5.59337 4.57715 5.73824 4.43228ZM12.1161 6.19408H10.5774C10.3734 6.19408 10.1777 6.27514 10.0334 6.41942C9.88913 6.5637 9.80807 6.75938 9.80807 6.96342C9.80807 7.16747 9.88913 7.36315 10.0334 7.50743C10.1777 7.65171 10.3734 7.73277 10.5774 7.73277H12.1161C12.3202 7.73277 12.5158 7.81383 12.6601 7.95811C12.8044 8.10239 12.8855 8.29807 12.8855 8.50212V13.8875C12.8855 14.0916 12.8044 14.2873 12.6601 14.4315C12.5158 14.5758 12.3202 14.6569 12.1161 14.6569H2.88396C2.67992 14.6569 2.48424 14.5758 2.33995 14.4315C2.19567 14.2873 2.11462 14.0916 2.11462 13.8875V8.50212C2.11462 8.29807 2.19567 8.10239 2.33995 7.95811C2.48424 7.81383 2.67992 7.73277 2.88396 7.73277H4.42266C4.6267 7.73277 4.82238 7.65171 4.96666 7.50743C5.11094 7.36315 5.192 7.16747 5.192 6.96342C5.192 6.75938 5.11094 6.5637 4.96666 6.41942C4.82238 6.27514 4.6267 6.19408 4.42266 6.19408H2.88396C2.27183 6.19408 1.68478 6.43725 1.25194 6.87009C0.819095 7.30293 0.575928 7.88999 0.575928 8.50212V13.8875C0.575928 14.4997 0.819095 15.0867 1.25194 15.5196C1.68478 15.9524 2.27183 16.1956 2.88396 16.1956H12.1161C12.7282 16.1956 13.3153 15.9524 13.7481 15.5196C14.181 15.0867 14.4241 14.4997 14.4241 13.8875V8.50212C14.4241 7.88999 14.181 7.30293 13.7481 6.87009C13.3153 6.43725 12.7282 6.19408 12.1161 6.19408Z" fill="#43B888"/>
</svg>
